<svg width="20" height="21" viewBox="0 0 20 21" fill="none" xmlns="http://www.w3.org/2000/svg">
<path d="M15.625 10.5H10.625C10.2935 10.5 9.97554 10.6317 9.74112 10.8661C9.5067 11.1005 9.375 11.4185 9.375 11.75V15.5H2.5V9.25H1.25V19.25H2.5V16.75H17.5V19.25H18.75V13.625C18.749 12.7965 18.4194 12.0022 17.8336 11.4164C17.2478 10.8306 16.4535 10.501 15.625 10.5ZM17.5 15.5H10.625V11.75H15.625C16.1221 11.7505 16.5988 11.9482 16.9503 12.2997C17.3018 12.6512 17.4995 13.1279 17.5 13.625V15.5Z" fill="#0071BC"/>
<path d="M5.9375 11.125C6.12292 11.125 6.30418 11.18 6.45835 11.283C6.61252 11.386 6.73268 11.5324 6.80364 11.7037C6.8746 11.875 6.89316 12.0635 6.85699 12.2454C6.82081 12.4273 6.73153 12.5943 6.60041 12.7254C6.4693 12.8565 6.30226 12.9458 6.1204 12.982C5.93854 13.0182 5.75004 12.9996 5.57874 12.9286C5.40743 12.8577 5.26101 12.7375 5.158 12.5833C5.05498 12.4292 5 12.2479 5 12.0625C5 11.8139 5.09877 11.5754 5.27459 11.3996C5.4504 11.2238 5.68886 11.125 5.9375 11.125ZM5.9375 9.875C5.50485 9.875 5.08192 10.0033 4.72219 10.2437C4.36246 10.484 4.08208 10.8257 3.91651 11.2254C3.75095 11.6251 3.70763 12.0649 3.79203 12.4893C3.87644 12.9136 4.08478 13.3034 4.3907 13.6093C4.69663 13.9152 5.08641 14.1236 5.51074 14.208C5.93507 14.2924 6.37491 14.2491 6.77462 14.0835C7.17433 13.9179 7.51598 13.6375 7.75634 13.2778C7.99671 12.9181 8.125 12.4951 8.125 12.0625C8.125 11.4823 7.89453 10.9259 7.4843 10.5157C7.07406 10.1055 6.51766 9.875 5.9375 9.875ZM13.125 4.25H10.625V1.75H9.375V4.25H6.875V5.5H9.375V8H10.625V5.5H13.125V4.25Z" fill="#0071BC"/>
</svg>
