<svg xmlns="http://www.w3.org/2000/svg" width="36" height="36" viewBox="0 0 36 36">
  <g id="_5975182_building_clinic_corona_coronavirus_hospital_icon" data-name="5975182_building_clinic_corona_coronavirus_hospital_icon" transform="translate(-0.5 -0.5)">
    <path id="Path_5467" data-name="Path 5467" d="M36.5,9.768H28.074V.5H8.926V9.768H.5V32.211H5.249V36.5h26.5V32.211H36.5ZM10.457,2.032H26.543V30.679H23.326V24.551H13.674v6.128H10.457V2.032ZM21.794,30.679H15.13v-4.6h6.664Zm-19.762,0V11.3H8.926V30.679H2.032Zm28.187,4.289H6.781V32.211H30.3v2.757Zm4.749-4.289H28.074V11.3h6.894Z" fill="#f88d6d"/>
    <path id="Path_5468" data-name="Path 5468" d="M22.321,12.774h1.532V10.553h2.221V9.021H23.853V6.8H22.321V9.021H20.1v1.532h2.221Z" transform="translate(-4.587 -1.474)" fill="#f88d6d"/>
    <rect id="Rectangle_6618" data-name="Rectangle 6618" width="1.532" height="2.374" transform="translate(4.713 14.287)" fill="#f88d6d"/>
    <rect id="Rectangle_6619" data-name="Rectangle 6619" width="1.532" height="2.374" transform="translate(4.713 19.802)" fill="#f88d6d"/>
    <rect id="Rectangle_6620" data-name="Rectangle 6620" width="1.532" height="2.374" transform="translate(4.713 25.317)" fill="#f88d6d"/>
    <rect id="Rectangle_6621" data-name="Rectangle 6621" width="1.532" height="2.374" transform="translate(30.755 14.287)" fill="#f88d6d"/>
    <rect id="Rectangle_6622" data-name="Rectangle 6622" width="1.532" height="2.374" transform="translate(30.755 19.802)" fill="#f88d6d"/>
    <rect id="Rectangle_6623" data-name="Rectangle 6623" width="1.532" height="2.374" transform="translate(30.755 25.317)" fill="#f88d6d"/>
    <rect id="Rectangle_6624" data-name="Rectangle 6624" width="1.532" height="2.374" transform="translate(13.674 14.287)" fill="#f88d6d"/>
    <rect id="Rectangle_6625" data-name="Rectangle 6625" width="1.532" height="2.374" transform="translate(13.674 19.802)" fill="#f88d6d"/>
    <rect id="Rectangle_6626" data-name="Rectangle 6626" width="1.532" height="2.374" transform="translate(17.734 14.287)" fill="#f88d6d"/>
    <rect id="Rectangle_6627" data-name="Rectangle 6627" width="1.532" height="2.374" transform="translate(17.734 19.802)" fill="#f88d6d"/>
    <rect id="Rectangle_6628" data-name="Rectangle 6628" width="1.532" height="2.374" transform="translate(21.794 14.287)" fill="#f88d6d"/>
    <rect id="Rectangle_6629" data-name="Rectangle 6629" width="1.532" height="2.374" transform="translate(21.794 19.802)" fill="#f88d6d"/>
  </g>
</svg>
