<svg width="18" height="19" viewBox="0 0 18 19" fill="none" xmlns="http://www.w3.org/2000/svg">
<path d="M8.99996 0.166626C13.6025 0.166626 17.3333 3.89746 17.3333 8.49996C17.3333 13.1025 13.6025 16.8333 8.99996 16.8333C4.39746 16.8333 0.666626 13.1025 0.666626 8.49996C0.666626 3.89746 4.39746 0.166626 8.99996 0.166626ZM8.99996 1.83329C7.23185 1.83329 5.53616 2.53567 4.28591 3.78591C3.03567 5.03616 2.33329 6.73185 2.33329 8.49996C2.33329 10.2681 3.03567 11.9638 4.28591 13.214C5.53616 14.4642 7.23185 15.1666 8.99996 15.1666C10.7681 15.1666 12.4638 14.4642 13.714 13.214C14.9642 11.9638 15.6666 10.2681 15.6666 8.49996C15.6666 6.73185 14.9642 5.03616 13.714 3.78591C12.4638 2.53567 10.7681 1.83329 8.99996 1.83329ZM8.99996 3.49996C9.20407 3.49999 9.40107 3.57492 9.5536 3.71056C9.70613 3.84619 9.80358 4.03308 9.82746 4.23579L9.83329 4.33329V8.15496L12.0891 10.4108C12.2386 10.5608 12.3254 10.762 12.3318 10.9736C12.3383 11.1852 12.2639 11.3914 12.1239 11.5502C11.9839 11.709 11.7887 11.8085 11.5779 11.8286C11.3671 11.8487 11.1566 11.7878 10.9891 11.6583L10.9108 11.5891L8.41079 9.08913C8.28128 8.9595 8.19809 8.79079 8.17413 8.60913L8.16663 8.49996V4.33329C8.16663 4.11228 8.25442 3.90032 8.4107 3.74404C8.56698 3.58776 8.77894 3.49996 8.99996 3.49996Z" fill="#00A023"/>
</svg>
