<svg id="Group_9408" data-name="Group 9408" xmlns="http://www.w3.org/2000/svg" xmlns:xlink="http://www.w3.org/1999/xlink" width="38.414" height="36" viewBox="0 0 38.414 36">
  <defs>
    <clipPath id="clip-path">
      <rect id="Rectangle_6632" data-name="Rectangle 6632" width="38.414" height="36" fill="#f88d6d"/>
    </clipPath>
  </defs>
  <g id="Group_9407" data-name="Group 9407" clip-path="url(#clip-path)">
    <path id="Path_5476" data-name="Path 5476" d="M207.413,137.578a2.88,2.88,0,0,1-1.649,1.268,18.23,18.23,0,0,1-4.339.966c-.694.088-1.393.136-2.088.213a.443.443,0,0,1-.478-.193c-.238-.35-.5-.684-.68-.925.418-.028,1.062-.061,1.7-.117a21.884,21.884,0,0,0,5.08-.894c1.519-.508,1.292-.489,1.218-1.857a12.178,12.178,0,0,0-.275-1.924,2.589,2.589,0,0,0-1.91-2.059c-.476-.138-.957-.257-1.488-.4.1.5.115.926.668,1.129a1.612,1.612,0,0,1,.946,1.1c.182.6.367,1.194.514,1.8a1.453,1.453,0,0,1-1.655,1.789.513.513,0,0,1-.491-.523.5.5,0,0,1,.482-.525c.086-.012.174-.011.262-.017.3-.021.44-.2.369-.481-.155-.6-.321-1.206-.523-1.8a.845.845,0,0,0-.845-.572.858.858,0,0,0-.884.574c-.21.586-.372,1.191-.53,1.794a.354.354,0,0,0,.34.474c.087.011.175,0,.262.016.311.04.518.194.514.531a.51.51,0,0,1-.523.527,1.456,1.456,0,0,1-1.62-1.8c.143-.607.324-1.206.517-1.8a2.029,2.029,0,0,1,1.27-1.28,1.509,1.509,0,0,0-1.345-1.6l-3.075,7.545c-.395-.133-.762-.248-1.121-.385a.441.441,0,0,1-.226-.218c-.506-1.222-1.014-2.444-1.495-3.677a.86.86,0,0,1,.373-.947,3.324,3.324,0,0,0,1.293-2.516,1.289,1.289,0,0,1,.052-.2,4.037,4.037,0,0,0,3.619-1.262,12.685,12.685,0,0,0,4.134,1.409,4.051,4.051,0,0,1,3.389,3.7c.086.566.158,1.134.237,1.7Z" transform="translate(-168.999 -112.519)" fill="#f88d6d"/>
    <path id="Path_5477" data-name="Path 5477" d="M71.512,193.972l2.849,3.983c.1-.454.19-.814.251-1.178.012-.071-.073-.174-.136-.239a1.6,1.6,0,0,1-.383-1.5.738.738,0,0,1,.491-.476,5.974,5.974,0,0,1,1.481,0,.619.619,0,0,1,.54.7,1.713,1.713,0,0,1-.441,1.31.343.343,0,0,0-.094.258c.057.342.14.679.235,1.117l2.923-4.086a9.768,9.768,0,0,0,3.829,1.667,3.66,3.66,0,0,1,2.832,3.341c.124.876.143,1.766.235,2.648a1.327,1.327,0,0,1-.808,1.432,12.2,12.2,0,0,1-2.265.857,33.48,33.48,0,0,1-9.232.8,29.247,29.247,0,0,1-5.9-.727,16,16,0,0,1-2.365-.809,1.55,1.55,0,0,1-1.026-1.687,14.354,14.354,0,0,1,.5-3.549,3.231,3.231,0,0,1,2.166-2.162c.581-.191,1.184-.322,1.749-.55.851-.343,1.677-.747,2.568-1.15m-.229,1.7c-.043.082-.065.128-.089.172-.048.088-.1.173-.145.262a4.183,4.183,0,0,0-.307,2.162.423.423,0,0,0,.348.443,1.672,1.672,0,0,1,1.2,1.7,1.717,1.717,0,1,1-2.77-1.443.651.651,0,0,0,.184-.428c.021-.547-.008-1.1.016-1.642a5.867,5.867,0,0,1,.164-.844c-.821.26-1.595.491-2.357.752a2.22,2.22,0,0,0-1.452,1.548,10.567,10.567,0,0,0-.347,3.227.606.606,0,0,0,.3.426,6.235,6.235,0,0,0,1.137.47,29.222,29.222,0,0,0,6.806.96c.23.011.462,0,.718,0a9.224,9.224,0,0,1,.008-1.171,4.079,4.079,0,0,0-1.042-3.322c-.847-1.01-1.554-2.137-2.369-3.277m4.69,7.767c.137.007.222.017.307.014a32.4,32.4,0,0,0,5.8-.625c.812-.177,1.6-.467,2.393-.724a.644.644,0,0,0,.471-.751c-.067-.708-.084-1.422-.163-2.128a2.719,2.719,0,0,0-2.263-2.625c-.425-.092-.836-.252-1.254-.377a2.285,2.285,0,0,0-.254-.045,3.482,3.482,0,0,1,.09.477.579.579,0,0,0,.466.57,1.861,1.861,0,0,1,1.17,1.279c.165.537.322,1.076.468,1.618a1.453,1.453,0,0,1-1.686,1.841.5.5,0,0,1-.462-.5.506.506,0,0,1,.475-.534c.1-.017.2,0,.3-.012.292-.035.434-.2.356-.49-.156-.578-.313-1.157-.509-1.722a.892.892,0,0,0-.9-.612.864.864,0,0,0-.89.565c-.21.586-.378,1.188-.534,1.791-.074.285.086.45.381.47a1.727,1.727,0,0,1,.335.024.5.5,0,0,1,.414.546.491.491,0,0,1-.447.477,1.453,1.453,0,0,1-1.7-1.824c.131-.507.3-1,.435-1.511a2.119,2.119,0,0,1,1.136-1.413c.08-.04.185-.159.177-.228a2.8,2.8,0,0,0-.61-1.476c-.046.074-.07.119-.1.16q-1.644,2.3-3.287,4.608a.58.58,0,0,0-.112.307c-.009.937-.005,1.873-.005,2.856m-4.751-3.113a.63.63,0,0,0-.632-.646.651.651,0,0,0-.673.652.665.665,0,0,0,.64.652.644.644,0,0,0,.665-.658" transform="translate(-56.125 -168.639)" fill="#f88d6d"/>
    <path id="Path_5478" data-name="Path 5478" d="M109.555,78.931a10.306,10.306,0,0,0-.081,1.044,1.136,1.136,0,0,0,.169.609,3.193,3.193,0,0,1,.021,3.072.767.767,0,0,1-.257.268,1.791,1.791,0,0,0-.817,1.011,7.663,7.663,0,0,1-2.565,2.978,4.186,4.186,0,0,1-5.189-.032,8.106,8.106,0,0,1-2.7-3.293,2.119,2.119,0,0,0-.44-.515c-.121-.124-.283-.211-.393-.342a2.958,2.958,0,0,1,.02-3.174.774.774,0,0,0,.18-.74,4.62,4.62,0,0,1,1.419-4.466,5.794,5.794,0,0,1,3.075-1.361,5.681,5.681,0,0,1,4.472,1.027.479.479,0,0,0,.235.092,3.053,3.053,0,0,1,2.816,3.11c.021.235,0,.475,0,.712l.036,0m-9.851.386c-.471.639-.86,1.229-1.314,1.764a2,2,0,0,0-.2,1.891.465.465,0,0,0,.192.17,1.48,1.48,0,0,1,.788.9,6.637,6.637,0,0,0,2.544,3.02,3,3,0,0,0,3.48,0,6.969,6.969,0,0,0,2.568-3.051,1.889,1.889,0,0,1,.608-.767,1.49,1.49,0,0,0,.128-2.147,5.064,5.064,0,0,1-1.634-2.014c-.092-.212-.156-.436-.241-.678a9.644,9.644,0,0,1-6.92.917" transform="translate(-84.249 -64.292)" fill="#f88d6d"/>
    <path id="Path_5479" data-name="Path 5479" d="M169.047,15.343c1.575.633,2.706-.038,3.754-.949a6.381,6.381,0,0,0,1.68-2.364,1.607,1.607,0,0,1,.8-.939.542.542,0,0,0,.266-.374,5.9,5.9,0,0,0,.008-1.185c-.016-.154-.193-.294-.306-.433-.084-.1-.211-.18-.268-.294a2.574,2.574,0,0,0-1.935-1.388c-.649-.128-1.3-.222-1.952-.356a5.337,5.337,0,0,1-2.97-1.647c-.042.126-.078.211-.1.3a5.287,5.287,0,0,1-1.2,2.423,4.122,4.122,0,0,1-1.366.89,1.152,1.152,0,0,1-1.249-.08,1.743,1.743,0,0,0-.277-.123c0-.044-.008-.093.01-.11.446-.409.393-.958.429-1.486a7.411,7.411,0,0,1,.575-2.618,3.015,3.015,0,0,1,1.916-1.722c.191-.059.281-.122.3-.346A2.641,2.641,0,0,1,169.47.026,2.668,2.668,0,0,1,172.3,1.782a.537.537,0,0,0,.277.3,4.669,4.669,0,0,1,3.4,4.065c.12.636.155,1.288.238,1.932a.886.886,0,0,0,.118.377,3.02,3.02,0,0,1,.211,2.963,1.2,1.2,0,0,1-.486.548,1.447,1.447,0,0,0-.582.689,7.409,7.409,0,0,1-3.72,3.8,3.8,3.8,0,0,1-1.9.321.423.423,0,0,1-.444-.355,4.868,4.868,0,0,0-.244-.585,4.622,4.622,0,0,1-.118-.494" transform="translate(-142.61 0.001)" fill="#f88d6d"/>
    <path id="Path_5480" data-name="Path 5480" d="M44.993,8.653c-.324.11-.687.242-1.056.352a.268.268,0,0,1-.241-.072c-.581-1.228-1.712-1.46-2.89-1.626a6.854,6.854,0,0,1-3.125-1.059c-.311-.221-.592-.484-.914-.751A3.429,3.429,0,0,1,36.626,6a17.183,17.183,0,0,1-.895,1.879,2.652,2.652,0,0,1-1.668,1.193.674.674,0,0,0-.572.685,4.891,4.891,0,0,0,.055,1,.623.623,0,0,0,.3.394,1.591,1.591,0,0,1,.759.885,6.678,6.678,0,0,0,1.861,2.548,3.378,3.378,0,0,0,3.653.808c-.052.17-.082.306-.135.433a2.624,2.624,0,0,0-.248.541c-.062.391-.314.453-.636.467a4.552,4.552,0,0,1-2.831-.927,8,8,0,0,1-2.714-3.328,1.9,1.9,0,0,0-.421-.484c-.114-.114-.265-.192-.371-.311a3.013,3.013,0,0,1,.011-3.274A1.077,1.077,0,0,0,32.986,8c.125-.838.167-1.692.352-2.515A3.209,3.209,0,0,1,35.63,2.9c.089-.026.175-.215.184-.334A2.651,2.651,0,0,1,39.783.418a2.7,2.7,0,0,1,1.179,1.408.538.538,0,0,0,.27.307,4.675,4.675,0,0,1,3.4,4.057c.119.624.155,1.263.237,1.894.023.177.073.351.12.568" transform="translate(-28.082 -0.053)" fill="#f88d6d"/>
    <path id="Path_5481" data-name="Path 5481" d="M11.38,130.679c.053.309.092.591.15.869a2.8,2.8,0,0,0,1.082,1.74,1.119,1.119,0,0,1,.366,1.335c-.442,1.087-.889,2.172-1.319,3.263a.634.634,0,0,1-.465.424c-.31.084-.611.2-.946.315l-3.034-7.449A4.329,4.329,0,0,0,6.223,133a4.435,4.435,0,0,0-.088.478c-.068.432-.075.766.444,1.023a1.573,1.573,0,0,1,.668,1.9,1.7,1.7,0,0,1-1.684,1.183,1.679,1.679,0,0,1-1.6-1.243,1.644,1.644,0,0,1,.727-1.884.717.717,0,0,0,.368-.64c.107-.746.295-1.48.454-2.236a10.328,10.328,0,0,0-2.977.968,2.758,2.758,0,0,0-1.119,2c-.12.763-.145,1.54-.235,2.308a.7.7,0,0,0,.53.827,17.735,17.735,0,0,0,2.476.706c1.577.247,3.171.38,4.759.558.169.019.339.026.4.03-.279.324-.582.683-.9,1.032a.311.311,0,0,1-.227.085A22.254,22.254,0,0,1,1.3,138.765a4.033,4.033,0,0,1-.712-.411,1.222,1.222,0,0,1-.583-1.18c.1-.993.14-1.994.3-2.976a3.936,3.936,0,0,1,3.307-3.375c1.173-.277,2.316-.684,3.468-1.049a4.642,4.642,0,0,0,.679-.344,4.027,4.027,0,0,0,3.617,1.249M5.6,135.231a.66.66,0,0,0-.65.642.675.675,0,0,0,.672.664.651.651,0,0,0,.641-.685.641.641,0,0,0-.662-.621" transform="translate(0 -112.592)" fill="#f88d6d"/>
    <path id="Path_5482" data-name="Path 5482" d="M93.96,69.913a.9.9,0,1,1,.91-.894.906.906,0,0,1-.91.894" transform="translate(-80.939 -59.249)" fill="#f88d6d"/>
    <path id="Path_5483" data-name="Path 5483" d="M223.175,69.911a.9.9,0,1,1,.9-.9.906.906,0,0,1-.9.9" transform="translate(-193.334 -59.247)" fill="#f88d6d"/>
    <path id="Path_5484" data-name="Path 5484" d="M60.967,69.125a.876.876,0,1,1-1.751-.036.876.876,0,1,1,1.751.036" transform="translate(-51.512 -59.342)" fill="#f88d6d"/>
    <path id="Path_5485" data-name="Path 5485" d="M190.164,69.1a.876.876,0,1,1-1.752.016.876.876,0,1,1,1.752-.016" transform="translate(-163.9 -59.344)" fill="#f88d6d"/>
    <path id="Path_5486" data-name="Path 5486" d="M72.055,101.791a2.22,2.22,0,0,1-1.58-.889c-.04-.046-.065-.171-.039-.2a.274.274,0,0,1,.219-.064,5.256,5.256,0,0,0,2.812,0,.272.272,0,0,1,.219.067c.027.025,0,.149-.039.2a2.234,2.234,0,0,1-1.592.887" transform="translate(-61.264 -87.544)" fill="#f88d6d"/>
    <path id="Path_5487" data-name="Path 5487" d="M201.139,101.753a2.205,2.205,0,0,1-1.468-.885c-.04-.046-.062-.171-.035-.2a.277.277,0,0,1,.221-.063,5.182,5.182,0,0,0,2.812,0c.062-.017.189,0,.2.034a.315.315,0,0,1-.024.234,2.242,2.242,0,0,1-1.7.879" transform="translate(-173.654 -87.512)" fill="#f88d6d"/>
    <path id="Path_5488" data-name="Path 5488" d="M158.561,127.5a.9.9,0,1,1-.927.879.911.911,0,0,1,.927-.879" transform="translate(-137.126 -110.909)" fill="#f88d6d"/>
    <path id="Path_5489" data-name="Path 5489" d="M125.558,128.494a.876.876,0,1,1-1.752-.034.876.876,0,1,1,1.752.034" transform="translate(-107.698 -110.998)" fill="#f88d6d"/>
    <path id="Path_5490" data-name="Path 5490" d="M136.652,161.13a2.261,2.261,0,0,1-1.567-.9.215.215,0,0,1-.021-.2.212.212,0,0,1,.19-.056,5.22,5.22,0,0,0,2.847,0,.22.22,0,0,1,.194.049.211.211,0,0,1-.015.2,2.239,2.239,0,0,1-1.627.908" transform="translate(-117.479 -139.157)" fill="#f88d6d"/>
  </g>
</svg>
