<svg xmlns="http://www.w3.org/2000/svg" width="10" height="10" viewBox="0 0 10 10">
  <path id="Icon_material-my-location" data-name="Icon material-my-location" d="M6.5,4.682A1.818,1.818,0,1,0,8.318,6.5,1.818,1.818,0,0,0,6.5,4.682Zm4.064,1.364A4.088,4.088,0,0,0,6.955,2.436V1.5H6.045v.936A4.088,4.088,0,0,0,2.436,6.045H1.5v.909h.936a4.088,4.088,0,0,0,3.609,3.609V11.5h.909v-.936a4.088,4.088,0,0,0,3.609-3.609H11.5V6.045ZM6.5,9.682A3.182,3.182,0,1,1,9.682,6.5,3.179,3.179,0,0,1,6.5,9.682Z" transform="translate(-1.5 -1.5)" fill="#ff7a00"/>
</svg>
