<svg id="Group_9404" data-name="Group 9404" xmlns="http://www.w3.org/2000/svg" xmlns:xlink="http://www.w3.org/1999/xlink" width="31.228" height="36" viewBox="0 0 31.228 36">
  <defs>
    <clipPath id="clip-path">
      <rect id="Rectangle_6630" data-name="Rectangle 6630" width="31.228" height="36" fill="#45ac9d"/>
    </clipPath>
  </defs>
  <g id="Group_9403" data-name="Group 9403" clip-path="url(#clip-path)">
    <path id="Path_5469" data-name="Path 5469" d="M16.72,75.74l.82,1.062c-.682.533-1.364,1.017-1.981,1.572a1.453,1.453,0,0,0-.5.913c-.034,3.2-.018,6.406-.012,9.608a3.1,3.1,0,0,0,.064.418h9.2a4.656,4.656,0,0,0,.1-.688c.008-2.261-.019-4.522.019-6.782.012-.716-.234-.935-.926-.893-.87.053-1.746.012-2.688.012V79.6h3.6c0-.955,0-1.82,0-2.685-.012-2.668-.173-2.416,2.452-2.414H29.79c0-1.649.049-3.234-.048-4.81-.016-.265-.64-.615-1.034-.7a8.035,8.035,0,0,0-1.722-.03V67.541a20.327,20.327,0,0,1,2.431.152,2.215,2.215,0,0,1,1.794,2.239q.028,9.231,0,18.463c-.007,1.473-1.07,2.353-2.722,2.36-3.674.016-7.348.005-11.022.005q-7.206,0-14.413,0C.836,90.757,0,89.912,0,87.672Q0,79.1,0,70.527c0-2.051.873-2.955,2.9-2.963,3.046-.011,6.092,0,9.138,0,.277,0,.554.032.87.051v1.315H8.112v3.8h3.553c.38,1.29.294,1.415-.884,1.417-.873,0-1.746,0-2.682,0v9.3h5.6c0-1.406.057-2.78-.02-4.146A2.012,2.012,0,0,1,14.7,77.275c.686-.432,1.3-.979,2.024-1.535M6.564,89.364V74.125c-1.447,0-2.822.039-4.193-.015-.767-.03-1.033.193-1.02.992.045,2.882.019,5.766.021,8.649q0,2.209.007,4.418c0,.638.241,1.159.935,1.181,1.4.046,2.8.014,4.25.014M25.83,75.945v13.33a1.071,1.071,0,0,0,.237.079c.69.011,1.381.022,2.071.022,1.5,0,1.716-.2,1.718-1.663q.009-5.416,0-10.833c0-.3-.034-.605-.054-.936ZM13.7,89.328c0-1.35.019-2.655-.023-3.956a.716.716,0,0,0-.493-.5c-1.679-.038-3.359-.023-5.079-.023v4.474ZM6.586,68.967c-1.471,0-2.9-.049-4.323.039a1.214,1.214,0,0,0-.82.831A25.224,25.224,0,0,0,1.4,72.722H6.586Z" transform="translate(0 -54.764)" fill="#45ac9d"/>
    <path id="Path_5470" data-name="Path 5470" d="M82.766,7.583A20.761,20.761,0,0,1,81.7,10.947c-1.633,3.419-3.392,6.779-5.139,10.143-.464.894-1.042.9-1.494,0-1.88-3.716-3.884-7.383-5.519-11.205-1.607-3.757-.282-7.3,2.967-9.054,4.608-2.483,10.2.819,10.254,6.749m-7,12.2c2.088-3.845,4.152-7.332,5.311-11.233a6.234,6.234,0,0,0,.151-2.85A5.513,5.513,0,0,0,74.5,1.532,5.41,5.41,0,0,0,70.46,8.3,26.754,26.754,0,0,0,72,12.334c1.154,2.422,2.419,4.791,3.772,7.446" transform="translate(-55.835 0)" fill="#45ac9d"/>
    <path id="Path_5471" data-name="Path 5471" d="M91.106,25.876a3.344,3.344,0,1,1-.016-6.689,3.345,3.345,0,1,1,.016,6.689m.054-5.349a2,2,0,0,0-.12,4,2,2,0,1,0,.12-4" transform="translate(-71.148 -15.557)" fill="#45ac9d"/>
  </g>
</svg>
