<svg width="21" height="21" viewBox="0 0 21 21" fill="none" xmlns="http://www.w3.org/2000/svg">
<path d="M3.81589 2.75574C3.51097 2.75574 2.9964 2.86709 2.55807 3.33105C2.13879 3.79501 0.900024 4.92708 0.900024 7.17266C0.900024 9.4368 2.59618 11.6081 2.80582 11.9236C3.07263 12.2391 6.16003 16.8788 10.9055 18.846C12.0299 19.347 12.9066 19.6254 13.5926 19.8296C14.7171 20.1822 15.7462 20.1265 16.5657 20.0151C17.4805 19.8852 19.3481 18.9016 19.7484 17.8252C20.1486 16.7488 20.1486 15.8395 20.0342 15.6353C19.9008 15.4498 19.5959 15.3384 19.1194 15.1343C18.643 14.8744 16.3179 13.7609 15.8987 13.6125C15.4603 13.464 15.1935 13.3898 14.8314 13.8352C14.5265 14.2991 13.6117 15.3384 13.3449 15.6353C13.059 15.9508 12.7922 15.988 12.3348 15.7652C11.8393 15.524 10.3147 15.0415 8.52322 13.4826C7.11293 12.2577 6.17908 10.7545 5.89321 10.2905C5.66452 9.84509 5.87416 9.56671 6.10285 9.36257C6.31249 9.15842 6.61742 8.82437 6.808 8.54599C7.05575 8.28617 7.13198 8.08203 7.28445 7.78509C7.43691 7.4696 7.36068 7.20978 7.24633 6.98708C7.13198 6.78293 6.17908 4.48168 5.77887 3.57231C5.39771 2.6815 5.01655 2.79285 4.71162 2.7743C4.44481 2.7743 4.13988 2.75574 3.81589 2.75574Z" fill="white"/>
<path d="M16.0034 10.323C15.8116 10.3206 15.6285 10.2449 15.4929 10.1122C15.3573 9.97953 15.28 9.80024 15.2775 9.61258C15.2785 9.07632 15.1714 8.54515 14.9621 8.04952C14.7529 7.55389 14.4458 7.10356 14.0583 6.72437C13.6709 6.34517 13.2107 6.04457 12.7043 5.83981C12.1979 5.63505 11.6551 5.53015 11.1072 5.53113C10.9147 5.53113 10.7301 5.45629 10.5939 5.32306C10.4578 5.18984 10.3813 5.00915 10.3813 4.82074C10.3813 4.63234 10.4578 4.45165 10.5939 4.31843C10.7301 4.1852 10.9147 4.11036 11.1072 4.11036C11.8458 4.10925 12.5774 4.25082 13.26 4.52694C13.9426 4.80306 14.5628 5.20831 15.0851 5.71946C15.6074 6.23061 16.0215 6.83761 16.3036 7.50567C16.5857 8.17373 16.7304 8.88971 16.7292 9.61258C16.7292 9.70587 16.7105 9.79825 16.674 9.88444C16.6375 9.97063 16.584 10.0489 16.5166 10.1149C16.4492 10.1809 16.3692 10.2332 16.2812 10.2689C16.1931 10.3046 16.0987 10.323 16.0034 10.323Z" fill="white"/>
<path d="M19.3612 9.991C19.1696 9.98859 18.9866 9.9131 18.851 9.7806C18.7154 9.6481 18.6381 9.46904 18.6354 9.28155C18.6369 8.36784 18.4543 7.46281 18.098 6.61824C17.7417 5.77367 17.2188 5.00614 16.5591 4.35957C15.8994 3.713 15.116 3.20009 14.2535 2.85017C13.3911 2.50025 12.4666 2.32021 11.533 2.32033C11.4356 2.32379 11.3384 2.30798 11.2473 2.27386C11.1562 2.23974 11.0731 2.18801 11.0029 2.12175C10.9327 2.05548 10.8768 1.97605 10.8387 1.8882C10.8005 1.80034 10.7809 1.70587 10.7809 1.61041C10.7809 1.51496 10.8005 1.42048 10.8387 1.33262C10.8768 1.24477 10.9327 1.16534 11.0029 1.09908C11.0731 1.03281 11.1562 0.981076 11.2473 0.946956C11.3384 0.912836 11.4356 0.897033 11.533 0.900491C12.6572 0.90049 13.7703 1.11734 14.8087 1.53864C15.8472 1.95994 16.7906 2.57744 17.585 3.35581C18.3795 4.13419 19.0093 5.05818 19.4387 6.07496C19.868 7.09174 20.0883 8.18137 20.0871 9.28155C20.0871 9.37484 20.0683 9.46722 20.0318 9.5534C19.9953 9.63959 19.9419 9.7179 19.8745 9.78387C19.8071 9.84983 19.7271 9.90216 19.639 9.93786C19.5509 9.97356 19.4565 9.991 19.3612 9.991Z" fill="white"/>
</svg>
