<svg width="10" height="9" viewBox="0 0 10 9" fill="none" xmlns="http://www.w3.org/2000/svg">
<path fill-rule="evenodd" clip-rule="evenodd" d="M5.3961 0.23878C5.36118 0.167493 5.30532 0.107121 5.23513 0.0648045C5.16493 0.0224884 5.08334 0 5 0C4.91666 0 4.83507 0.0224884 4.76487 0.0648045C4.69468 0.107121 4.63882 0.167493 4.6039 0.23878L3.35191 2.79495L0.385082 3.12659C0.302306 3.1358 0.224064 3.16716 0.159614 3.21695C0.0951636 3.26674 0.0472043 3.33288 0.0214118 3.40755C-0.00438068 3.48221 -0.00692666 3.56228 0.0140752 3.63827C0.035077 3.71426 0.0787475 3.78298 0.139918 3.83632L2.33417 5.74728L1.7518 8.50893C1.73563 8.58591 1.74319 8.66565 1.77359 8.73872C1.80399 8.81178 1.85597 8.87511 1.92337 8.92123C1.99077 8.96735 2.07078 8.99433 2.15393 8.99897C2.23709 9.00361 2.31992 8.98572 2.39263 8.94743L5 7.57235L7.60737 8.94743C7.68012 8.98589 7.76306 9.00389 7.84635 8.9993C7.92963 8.99471 8.00977 8.96771 8.07726 8.92152C8.14476 8.87532 8.19678 8.81186 8.22715 8.73866C8.25752 8.66546 8.26498 8.58559 8.24863 8.50852L7.66626 5.74769L9.86008 3.83632C9.92125 3.78298 9.96492 3.71426 9.98592 3.63827C10.0069 3.56228 10.0044 3.48221 9.97859 3.40755C9.9528 3.33288 9.90484 3.26674 9.84039 3.21695C9.77594 3.16716 9.69769 3.1358 9.61492 3.12659L6.64766 2.79454L5.3961 0.23878Z" fill="white"/>
</svg>
