<svg id="Group_9406" data-name="Group 9406" xmlns="http://www.w3.org/2000/svg" xmlns:xlink="http://www.w3.org/1999/xlink" width="45.159" height="35.513" viewBox="0 0 45.159 35.513">
  <defs>
    <clipPath id="clip-path">
      <rect id="Rectangle_6631" data-name="Rectangle 6631" width="45.159" height="35.513" fill="#522db0"/>
    </clipPath>
  </defs>
  <g id="Group_9405" data-name="Group 9405" clip-path="url(#clip-path)">
    <path id="Path_5472" data-name="Path 5472" d="M3.435,155.955c-1.2-1.276-1.874-2.467-1.5-4.031a3.461,3.461,0,0,1,3.311-2.839c.845-.049,1.7.022,2.541-.034a1.3,1.3,0,0,1,1.546,1.134c.375,1.451,1.375,1.748,2.438.638a5.393,5.393,0,0,1,4.586-1.658c6.679.349,13.367.529,20.051.775a3.69,3.69,0,0,1,2.649.7,3.358,3.358,0,0,0,3.351.688c1.877-.425,1.918-.347,1.912,1.523,0,.636,0,1.272,0,1.907,0,.553-.15,1.159.616,1.414.132.044.263.444.206.618a1.009,1.009,0,0,1-.53.516,1.9,1.9,0,0,1-.718.036H1.3c-.151,0-.335.054-.448-.012a10.338,10.338,0,0,1-.857-.62c.284-.251.545-.674.857-.717a20.364,20.364,0,0,1,2.578-.034m10.43-.079H42.872v-3.22a4.885,4.885,0,0,0-.879.126,3.085,3.085,0,0,1-3.263-.706,3.688,3.688,0,0,0-2.532-.764c-2.815-.061-5.628-.19-8.443-.289-.288-.01-.577,0-.932,0,0,.891-.028,1.675.008,2.457.035.766-.265,1.113-1.052,1.107q-3.725-.028-7.45,0c-.771.006-1.111-.319-1.093-1.088.021-.927,0-1.855,0-2.849H14.628l-.762,5.227m-.825-4.045c-1.041,1.221-2.386,1.006-3.66.879a1.4,1.4,0,0,1-.958-.734c-.628-1.5-.592-1.518-2.244-1.518-.182,0-.364.008-.545,0a2.07,2.07,0,0,0-2.178,1.295,2.28,2.28,0,0,0,.41,2.606c.817.975,1.767,1.087,3.165.253a1.222,1.222,0,0,1,1.63.074c.3.254.675.414.966.673a3.148,3.148,0,0,0,2.825.508l.589-4.033m12.332-.946H18.7v2.255h6.676Z" transform="translate(0 -121.846)" fill="#522db0"/>
    <path id="Path_5473" data-name="Path 5473" d="M95.39,52.028c0,1,0,2,0,3,0,.482-.07.961-.69.969s-.687-.463-.7-.952c-.033-1.817-.1-3.633-.1-5.449A1.448,1.448,0,0,0,92.744,48c-.987-.284-1.962-.612-2.939-.926a2.2,2.2,0,0,1-1-3.027,6.3,6.3,0,0,0,1.012-4.036,1.827,1.827,0,1,0-3.65.145,7.014,7.014,0,0,0,.9,3.9,2.255,2.255,0,0,1-1.2,3.042c-.949.3-1.891.634-2.849.909a1.469,1.469,0,0,0-1.183,1.59c0,1.786,0,3.574-.058,5.359a1.264,1.264,0,0,1-.454.968c-.57.253-.924-.108-.92-.718.015-2.028.013-4.058.09-6.085a2.456,2.456,0,0,1,1.838-2.34c.859-.289,1.728-.548,2.589-.829s1.067-.74.7-1.566a9.16,9.16,0,0,1-.866-4.3,3.221,3.221,0,0,1,3-3.181,3.159,3.159,0,0,1,3.412,2.817,7.83,7.83,0,0,1-.886,4.636c-.478,1.024-.428,1.264.657,1.618.833.271,1.676.517,2.5.808A2.487,2.487,0,0,1,95.276,49.3c.021.908,0,1.816,0,2.725h.11" transform="translate(-65.732 -30.164)" fill="#522db0"/>
    <path id="Path_5474" data-name="Path 5474" d="M1.962,9.861A27.054,27.054,0,0,1,12.172,2.475,5.319,5.319,0,0,0,8.458,1.438a11.912,11.912,0,0,1-1.433.179c-.322-.025-.623-.312-.934-.482C6.3.853,6.457.377,6.713.319A7.271,7.271,0,0,1,14.127,2.3a1.688,1.688,0,0,1,.3,2.217,6.882,6.882,0,0,1-.83,1.187,24.663,24.663,0,0,1-9.023,6.42c-2.178.889-3.1.429-3.868-1.791A8.937,8.937,0,0,1,1,4.376c.083-.24.589-.335.9-.5.124.326.375.662.348.974-.111,1.316-.32,2.623-.458,3.937a4.779,4.779,0,0,0,.177,1.071m1.145,1.168A20.348,20.348,0,0,0,13.164,3.8,20.35,20.35,0,0,0,3.107,11.029" transform="translate(-0.259 -0.039)" fill="#522db0"/>
    <path id="Path_5475" data-name="Path 5475" d="M176.333,9.8a8.3,8.3,0,0,0-.175-4.7c-.139-.512-.368-1.076.347-1.272.7-.191.839.4.98.909.633,2.27.909,4.523-.407,6.669a1.767,1.767,0,0,1-2.354.986,3.725,3.725,0,0,1-.608-.175,23.951,23.951,0,0,1-9.645-6.9c-1.272-1.505-1.165-2.311.312-3.613A7.165,7.165,0,0,1,171.505.262c.284.065.474.542.708.828a3.154,3.154,0,0,1-1.005.47c-1.192.081-2.4.017-3.583.125a5.986,5.986,0,0,0-1.567.693A27.12,27.12,0,0,1,176.333,9.8M165.19,3.78a20.118,20.118,0,0,0,10.043,7.2,20.335,20.335,0,0,0-10.043-7.2" transform="translate(-133.737 0)" fill="#522db0"/>
  </g>
</svg>
