<svg xmlns="http://www.w3.org/2000/svg" xmlns:xlink="http://www.w3.org/1999/xlink" width="28.901" height="35.644" viewBox="0 0 28.901 35.644">
  <defs>
    <clipPath id="clip-path">
      <rect id="Rectangle_6617" data-name="Rectangle 6617" width="28.901" height="35.644" fill="#522db0"/>
    </clipPath>
  </defs>
  <g id="Group_9402" data-name="Group 9402" transform="translate(0 0)">
    <g id="Group_9401" data-name="Group 9401" transform="translate(0 0)" clip-path="url(#clip-path)">
      <path id="Path_5462" data-name="Path 5462" d="M23.678,139.907c.491-2.178.992-4.349,1.462-6.527.119-.55.3-.9.95-.945.425-.027,1.162.017,1.03-.7-.128-.7-.768-.33-1.22-.332-1.2-.007-1.622.627-1.809,1.764-.306,1.863-.8,3.7-1.23,5.539-.17.734-.586,1.061-1.134.936s-.805-.631-.638-1.341c.59-2.5,1.2-5,1.784-7.5a1.686,1.686,0,0,1,1.517-1.437c1.031-.153,2.055-.359,3.082-.541.379-.068.775-.18.683-.662-.088-.461-.464-.466-.867-.39-1.025.194-2.055.359-3.083.538a2.7,2.7,0,0,0-2.35,2.181c-.6,2.5-1.211,5-1.756,7.51a9.8,9.8,0,0,0-.019,1.97,2.1,2.1,0,0,0-.737.02,2.631,2.631,0,0,0-.668.509c.217.182.42.5.652.521.747.069,1.5.029,2.257.03.948,0,1.9-.036,2.843.012a.974.974,0,0,0,1.161-.889c.385-1.653.826-3.293,1.273-4.931.058-.213.28-.381.426-.57a2.236,2.236,0,0,1,.334.625,8.715,8.715,0,1,0,.03-2.471c-.073.533-.232.878-.828.837-.553-.037-.762.291-.879.767-.4,1.6-.838,3.191-1.2,4.8-.153.683-.459.9-1.066.68m20.084-5.913a7.587,7.587,0,1,1-7.836-7.493,7.611,7.611,0,0,1,7.836,7.493" transform="translate(-18.675 -107.061)" fill="#522db0"/>
      <path id="Path_5463" data-name="Path 5463" d="M26.9,24.5a5.76,5.76,0,0,0-.337,1.168,2.545,2.545,0,0,0,.248.847c.245-.171.634-.293.713-.521.686-1.993,1.317-4.005,1.964-6.012q.6-1.87,1.206-3.739c.154-.475.388-.9.98-.7s.545.646.381,1.137Q30,22.827,27.977,28.977c-.129.392-.534.949.13,1.185.712.253.736-.455.875-.871,1.362-4.071,2.7-8.15,4.06-12.222a1.969,1.969,0,0,0-.055-1.75,1.762,1.762,0,0,0-3.2.348c-.429,1.263-.833,2.534-1.25,3.8-.066.2-.145.4-.224.608-1.488-1.263-2.8-1.453-3.972-.6a2.81,2.81,0,0,0-1,3.3c.529,1.343,1.7,1.937,3.562,1.734m-2.676-2.711A1.756,1.756,0,0,1,25.936,20a1.8,1.8,0,0,1,1.791,1.654,1.766,1.766,0,0,1-1.736,1.846,1.713,1.713,0,0,1-1.77-1.713" transform="translate(-7.708 -12.323)" fill="#522db0"/>
      <path id="Path_5464" data-name="Path 5464" d="M64.58,5.374c0,.041-.043.186.009.278a5.452,5.452,0,0,0,.429.579c.2-.166.54-.313.565-.5.133-1.007.187-2.025.265-3.039.02-.266.015-.534.045-.8.055-.475.231-.891.8-.82.55.069.654.483.6.977-.092.818-.168,1.638-.245,2.457-.036.388-.117.856.44.9.541.04.553-.42.59-.816.086-.916.219-1.829.261-2.747A1.678,1.678,0,0,0,66.7,0,1.721,1.721,0,0,0,64.87,1.67c-.1,1.207-.19,2.415-.29,3.7" transform="translate(-48.893 0)" fill="#522db0"/>
      <path id="Path_5465" data-name="Path 5465" d="M5.545,81.112A5.262,5.262,0,0,0,.834,84.549,24.974,24.974,0,0,0,.007,87.4c-.053.233.212.539.33.811.222-.172.556-.3.644-.525.255-.65.409-1.339.6-2.013A4.33,4.33,0,0,1,5.729,82.13c.255-.035.473-.347.707-.53-.253-.163-.5-.331-.762-.483a.169.169,0,0,0-.129,0" transform="translate(22.464 -69.227)" fill="#522db0"/>
      <path id="Path_5466" data-name="Path 5466" d="M86.189,91.1a1.423,1.423,0,0,0,.547.161c.2-.007.531-.137.579-.285q.682-2.1,1.262-4.229a.641.641,0,0,0-.3-.55c-.159-.062-.554.064-.6.192-.486,1.438-.923,2.892-1.489,4.712" transform="translate(-72.303 -73.563)" fill="#522db0"/>
    </g>
  </g>
</svg>
