<svg xmlns="http://www.w3.org/2000/svg" width="16.388" height="25.427" viewBox="0 0 16.388 25.427"><defs><style>.a{fill:#ff8300;}.b{fill:#fff;}.c{fill:#00263e;}</style></defs><g transform="translate(-1271.371 -22.434)"><g transform="translate(1180.371 22.434)"><path class="a" d="M161.429,482.745a.744.744,0,0,0-.745-.745h-8.939a.745.745,0,0,0,0,1.49h8.939A.744.744,0,0,0,161.429,482.745Z" transform="translate(-57.02 -458.063)"/><path class="b" d="M99.194,0A8.2,8.2,0,0,0,91,8.194c0,6.2,7.355,13.722,7.668,14.035a.745.745,0,0,0,1.053,0c.313-.313,7.668-7.838,7.668-14.035A8.2,8.2,0,0,0,99.194,0Zm2.671,8.593c-.225.337-2.736.4-3.084.171l2.4.556-1.025,1.947c0,.412-.393,0-.8,0l-.4-1.4c-.412,0-.173-1.257-.173-1.668l.686-1.738,2.4,1.738c-.344.226.783,1.275.556.934s-4.105,2.5-3.762,2.27l.123-4.786c.25-.167.436.344.686.511l1.5.305C101.314,7.656,102.093,8.25,101.865,8.593Z"/></g><g transform="translate(0.264 1.646)"><path class="c" d="M3.824,0A3.824,3.824,0,1,1,0,3.824,3.824,3.824,0,0,1,3.824,0Z" transform="translate(1275.353 26.006)"/></g></g></svg>