<svg xmlns="http://www.w3.org/2000/svg" width="72.001" height="72.001" viewBox="0 0 72.001 72.001"><defs><style>.a{fill:#fff;}.b{fill:#3d7cc9;}.c{fill:#ff8300;}.d,.e{stroke:none;}.e{fill:#e7e8e8;}</style></defs><g transform="translate(-175 -174)"><g transform="translate(156 -507)"><g class="a" transform="translate(19 681)"><path class="d" d="M 66.46244049072266 71.7509765625 L 5.538538455963135 71.7509765625 C 2.622428178787231 71.7509765625 0.2499982863664627 69.37854766845703 0.2499982863664627 66.46244049072266 L 0.2499982863664627 5.538538455963135 C 0.2499982863664627 2.622428178787231 2.622428178787231 0.2499982863664627 5.538538455963135 0.2499982863664627 L 66.46244049072266 0.2499982863664627 C 69.37854766845703 0.2499982863664627 71.7509765625 2.622428178787231 71.7509765625 5.538538455963135 L 71.7509765625 66.46244049072266 C 71.7509765625 69.37854766845703 69.37854766845703 71.7509765625 66.46244049072266 71.7509765625 Z"/><path class="e" d="M 5.538536071777344 0.5 C 2.760276794433594 0.5 0.5 2.760276794433594 0.5 5.538536071777344 L 0.5 66.46244049072266 C 0.5 69.24069976806641 2.760276794433594 71.5009765625 5.538536071777344 71.5009765625 L 66.46244049072266 71.5009765625 C 69.24069976806641 71.5009765625 71.5009765625 69.24069976806641 71.5009765625 66.46244049072266 L 71.5009765625 5.538536071777344 C 71.5009765625 2.760276794433594 69.24069976806641 0.5 66.46244049072266 0.5 L 5.538536071777344 0.5 M 5.538536071777344 0 L 66.46244049072266 0 C 69.52128601074219 0 72.0009765625 2.479690551757812 72.0009765625 5.538536071777344 L 72.0009765625 66.46244049072266 C 72.0009765625 69.52128601074219 69.52128601074219 72.0009765625 66.46244049072266 72.0009765625 L 5.538536071777344 72.0009765625 C 2.479690551757812 72.0009765625 0 69.52128601074219 0 66.46244049072266 L 0 5.538536071777344 C 0 2.479690551757812 2.479690551757812 0 5.538536071777344 0 Z"/></g></g><g transform="translate(-45.989 -56)"><g transform="translate(253.768 272.306)"><path class="b" d="M337.962,461.984H332.1V459.54a5.958,5.958,0,0,1-3.11-5.235V449h11.92v5.3a5.994,5.994,0,0,1-2.947,5.142Zm-4.256-1.606h2.65v-1.92l.458-.218A4.376,4.376,0,0,0,339.3,454.3v-3.7H330.6v3.7a4.353,4.353,0,0,0,2.626,4l.484.21Z" transform="translate(-328.989 -449)"/></g><g transform="translate(250.091 245)"><path class="b" d="M313.875,254.771a4.886,4.886,0,1,1,4.886-4.886A4.891,4.891,0,0,1,313.875,254.771Zm0-8.165a3.279,3.279,0,1,0,3.279,3.279A3.283,3.283,0,0,0,313.875,246.606Z" transform="translate(-308.989 -245)"/></g><g transform="translate(240.989 251.826)"><path class="b" d="M250.492,330.667h-9.5v-1.606h7.9V316.412a3.283,3.283,0,0,1,3.279-3.279h7.388a4.865,4.865,0,0,0,4.859-4.859v-8.994a1.673,1.673,0,1,0-3.346,0v7.763a3.283,3.283,0,0,1-3.279,3.279h-7.1a4.347,4.347,0,0,0-4.343,4.342v13.46h-1.606v-13.46a5.955,5.955,0,0,1,5.949-5.949h7.1a1.675,1.675,0,0,0,1.673-1.673v-7.763a3.279,3.279,0,1,1,6.559,0v8.994a6.473,6.473,0,0,1-6.465,6.466h-7.388a1.675,1.675,0,0,0-1.673,1.673Z" transform="translate(-240.989 -296)"/></g><g transform="translate(267.081 273.056)"><rect class="c" width="1.606" height="4.954" transform="translate(0 1.319) rotate(-55.23)"/></g><g transform="translate(268.572 269.807)"><rect class="c" width="1.606" height="4.233" transform="matrix(0.028, -1, 1, 0.028, 0, 0.606)"/><g transform="translate(-10.683 5.12)"><path class="c" d="M315.482,430.64l.056.1a6.775,6.775,0,0,0,.383.583c.116.164.241.331.363.494l0,.006a4.165,4.165,0,0,1,1.038,1.95,1.85,1.85,0,0,1-1.845,1.845h-.005a1.815,1.815,0,0,1-.588-.1,1.842,1.842,0,0,1-1.252-1.747,4.172,4.172,0,0,1,1.043-1.955,11.181,11.181,0,0,0,.746-1.078Z" transform="translate(-313.635 -430.64)"/></g></g><g transform="translate(267.086 262.784)"><rect class="c" width="4.233" height="1.606" transform="matrix(0.817, -0.577, 0.577, 0.817, 0, 2.443)"/></g></g></g></svg>