<svg xmlns="http://www.w3.org/2000/svg" width="72.001" height="72.001" viewBox="0 0 72.001 72.001"><defs><style>.a{fill:#fff;}.b{fill:#f36a10;}.c{fill:#5c93d5;}.d{fill:#6095cf;}.e,.f{stroke:none;}.f{fill:#e7e8e8;}</style></defs><g transform="translate(-175 -174)"><g transform="translate(156 -507)"><g class="a" transform="translate(19 681)"><path class="e" d="M 66.46244049072266 71.7509765625 L 5.538538455963135 71.7509765625 C 2.622428178787231 71.7509765625 0.2499982863664627 69.37854766845703 0.2499982863664627 66.46244049072266 L 0.2499982863664627 5.538538455963135 C 0.2499982863664627 2.622428178787231 2.622428178787231 0.2499982863664627 5.538538455963135 0.2499982863664627 L 66.46244049072266 0.2499982863664627 C 69.37854766845703 0.2499982863664627 71.7509765625 2.622428178787231 71.7509765625 5.538538455963135 L 71.7509765625 66.46244049072266 C 71.7509765625 69.37854766845703 69.37854766845703 71.7509765625 66.46244049072266 71.7509765625 Z"/><path class="f" d="M 5.538536071777344 0.5 C 2.760276794433594 0.5 0.5 2.760276794433594 0.5 5.538536071777344 L 0.5 66.46244049072266 C 0.5 69.24069976806641 2.760276794433594 71.5009765625 5.538536071777344 71.5009765625 L 66.46244049072266 71.5009765625 C 69.24069976806641 71.5009765625 71.5009765625 69.24069976806641 71.5009765625 66.46244049072266 L 71.5009765625 5.538536071777344 C 71.5009765625 2.760276794433594 69.24069976806641 0.5 66.46244049072266 0.5 L 5.538536071777344 0.5 M 5.538536071777344 0 L 66.46244049072266 0 C 69.52128601074219 0 72.0009765625 2.479690551757812 72.0009765625 5.538536071777344 L 72.0009765625 66.46244049072266 C 72.0009765625 69.52128601074219 69.52128601074219 72.0009765625 66.46244049072266 72.0009765625 L 5.538536071777344 72.0009765625 C 2.479690551757812 72.0009765625 0 69.52128601074219 0 66.46244049072266 L 0 5.538536071777344 C 0 2.479690551757812 2.479690551757812 0 5.538536071777344 0 Z"/></g></g><g transform="translate(-33.302 -57.53)"><g transform="translate(229.694 278.255)"><circle class="b" cx="1.168" cy="1.168" r="1.168" transform="translate(0 0)"/></g><g transform="translate(233.15 280.521)"><circle class="b" cx="2.267" cy="2.267" r="2.267" transform="translate(0)"/></g><g transform="translate(234.263 274.655)"><circle class="b" cx="1.863" cy="1.863" r="1.863" transform="translate(0 0)"/></g><g transform="translate(252.654 254.652)"><path class="c" d="M423.525,339.754h-1.617V314.059l8.633-7.239,1.039,1.239-8.055,6.754Z" transform="translate(-421.908 -306.82)"/></g><g transform="translate(226.302 246.53)"><path class="d" d="M235.05,287.881h-.7a8.049,8.049,0,0,1-5.029-14.334l10.888-8.711a9.743,9.743,0,0,1,6.064-2.127h1.489V246.53h1.617v17.8h-3.105a8.12,8.12,0,0,0-5.054,1.773l-10.888,8.711a6.432,6.432,0,0,0,4.019,11.455h.7a6.439,6.439,0,0,0,6.432-6.432V272.1a5.208,5.208,0,0,1,5.208-5.208h2.69v20.689h-1.617V268.513H246.69A3.591,3.591,0,0,0,243.1,272.1v7.728A8.058,8.058,0,0,1,235.05,287.881Z" transform="translate(-226.302 -246.53)"/></g><g transform="translate(252.026 246.53)"><path class="c" d="M417.246,259.351V246.53h1.617v9.5l4.884-3.821,1,1.273Z" transform="translate(-417.246 -246.53)"/></g></g></g></svg>