<svg xmlns="http://www.w3.org/2000/svg" width="72.001" height="72.001" viewBox="0 0 72.001 72.001"><defs><style>.a{fill:#fff;}.b{fill:#6095cf;}.c{fill:#f36a10;}.d,.e{stroke:none;}.e{fill:#e7e8e8;}</style></defs><g transform="translate(-40 -174)"><g transform="translate(21 -507)"><g class="a" transform="translate(19 681)"><path class="d" d="M 66.46244049072266 71.7509765625 L 5.538538455963135 71.7509765625 C 2.622428178787231 71.7509765625 0.2499982863664627 69.37854766845703 0.2499982863664627 66.46244049072266 L 0.2499982863664627 5.538538455963135 C 0.2499982863664627 2.622428178787231 2.622428178787231 0.2499982863664627 5.538538455963135 0.2499982863664627 L 66.46244049072266 0.2499982863664627 C 69.37854766845703 0.2499982863664627 71.7509765625 2.622428178787231 71.7509765625 5.538538455963135 L 71.7509765625 66.46244049072266 C 71.7509765625 69.37854766845703 69.37854766845703 71.7509765625 66.46244049072266 71.7509765625 Z"/><path class="e" d="M 5.538536071777344 0.5 C 2.760276794433594 0.5 0.5 2.760276794433594 0.5 5.538536071777344 L 0.5 66.46244049072266 C 0.5 69.24069976806641 2.760276794433594 71.5009765625 5.538536071777344 71.5009765625 L 66.46244049072266 71.5009765625 C 69.24069976806641 71.5009765625 71.5009765625 69.24069976806641 71.5009765625 66.46244049072266 L 71.5009765625 5.538536071777344 C 71.5009765625 2.760276794433594 69.24069976806641 0.5 66.46244049072266 0.5 L 5.538536071777344 0.5 M 5.538536071777344 0 L 66.46244049072266 0 C 69.52128601074219 0 72.0009765625 2.479690551757812 72.0009765625 5.538536071777344 L 72.0009765625 66.46244049072266 C 72.0009765625 69.52128601074219 69.52128601074219 72.0009765625 66.46244049072266 72.0009765625 L 5.538536071777344 72.0009765625 C 2.479690551757812 72.0009765625 0 69.52128601074219 0 66.46244049072266 L 0 5.538536071777344 C 0 2.479690551757812 2.479690551757812 0 5.538536071777344 0 Z"/></g></g><g transform="translate(-144.71 -45.299)"><g transform="translate(216.887 240.777)"><rect class="b" width="2.854" height="1.472" transform="translate(0 0)"/></g><g transform="translate(217.606 241.31)"><path class="b" d="M332.669,292.846c0-.075-.223-7.567-1.4-11.655l1.415-.407c1.227,4.269,1.447,11.707,1.455,12.021Z" transform="translate(-331.27 -280.784)"/></g><path class="b" d="M295.071,251.31c-3.608-.722-7.618.773-9.343,1.536a60.481,60.481,0,0,0-2.686-12.9l-1.388.492a61.88,61.88,0,0,1,2.852,15.788l-6.251-.285a2.855,2.855,0,0,0-2.985,2.852v.947a5,5,0,0,0-3.461.451,3.383,3.383,0,0,0-1.5,2.646l0,.041v7.6a5.546,5.546,0,0,0,11.091,0V263.3a.3.3,0,0,1,.491-.234l.056.041a17.545,17.545,0,0,0,2.631,1.369c.326,1.7,1.269,8.375-2.791,13.3l1.136.937c3.973-4.818,3.651-10.926,3.256-13.625a18.931,18.931,0,0,0,6,1.022,16.212,16.212,0,0,0,2.11-.136,5.036,5.036,0,0,0,3.526-2.889,11.908,11.908,0,0,0,1.361-5.148C299.29,254.325,297.758,251.847,295.071,251.31Zm2.626,6.578c-.11,3.292-1.8,6.389-3.606,6.626a18.482,18.482,0,0,1-11.313-2.617,1.773,1.773,0,0,0-2.857,1.4v7.175a4.073,4.073,0,1,1-8.146,0v-7.515a1.946,1.946,0,0,1,.819-1.523,3.868,3.868,0,0,1,2.677-.2V268.8a5.371,5.371,0,0,0-1.3.441l.683,1.3a3.534,3.534,0,0,1,3.092-.018l.746-1.269a4.128,4.128,0,0,0-1.751-.554v-9.912a1.383,1.383,0,0,1,1.446-1.381l6.37.291c0,.076,0,.152.005.228a1.744,1.744,0,0,0,1.726,1.707l5.173.1a5.73,5.73,0,0,1,.192,1.493h1.472a6.5,6.5,0,0,0-2.308-5.138l-.877,1.183a4.109,4.109,0,0,1,.86.978l-4.491-.084H286.3a.261.261,0,0,1-.261-.26c-.021-1.2-.08-2.373-.167-3.5,1.166-.551,5.372-2.359,8.914-1.65C297.628,253.322,297.733,256.827,297.7,257.888Z" transform="translate(-60.176 -3.648)"/><path class="b" d="M214.852,259.005a48.484,48.484,0,0,0-1.385-5.914l-1.406.438a47.768,47.768,0,0,1,1.337,5.713c.56,3.452.348,5.814-.567,6.319a7.91,7.91,0,0,1-1.9.618c-.506.122-1.051.254-1.606.446a4.284,4.284,0,0,1-4.128-.788c-1.215-1.14-1.908-3.345-2.005-6.376a26.153,26.153,0,0,1,.253-4.448L202,254.777c-.058.357-1.381,8.771,2.2,12.132a4.921,4.921,0,0,0,2.558,1.277,6.638,6.638,0,0,0-.816.993c-1.57,2.326-2.239,6.271-2.044,12.061l1.471-.049c-.183-5.469.4-9.128,1.793-11.187a6.017,6.017,0,0,1,4.126-2.393,8.933,8.933,0,0,0,2.262-.76C215.137,265.97,215.566,263.4,214.852,259.005Z" transform="translate(0 -15.179)"/><g transform="translate(205.995 237.764)"><path class="b" d="M238.775,261.733a15.432,15.432,0,0,1-1.576-.083l.077-1.468h1.495a18.052,18.052,0,0,0-2.133-7.565l1.277-.733a19.218,19.218,0,0,1,2.329,8.263c.606-.1,1.039-.25,1.153-.445l1.272.742a3.262,3.262,0,0,1-2.471,1.2v.007h-.052A11.108,11.108,0,0,1,238.775,261.733Z" transform="translate(-236.638 -251.883)"/></g><g transform="translate(230.35 249.888)"><path class="c" d="M441.14,353.4a3.7,3.7,0,0,0-3.569-2.7c-.641-.033-2.274.345-2.421,1.135-.222,1.19,2.142,1.354,2.811,1.745,1.156.674.642,2.423,1.783,2.967,1.385.66,1.55-1.905,1.471-2.7A3.476,3.476,0,0,0,441.14,353.4Z" transform="translate(-435.135 -350.699)"/></g></g></g></svg>