<svg xmlns="http://www.w3.org/2000/svg" viewBox="0 0 72 72" xmlns:v="https://vecta.io/nano"><path fill="none" stroke="#e8e6d9" stroke-width=".5" stroke-miterlimit="10" d="M69.7 71H2.3c-.7 0-1.3-.6-1.3-1.3V2.3C1 1.6 1.6 1 2.3 1h67.4c.7 0 1.3.6 1.3 1.3v67.4c0 .7-.6 1.3-1.3 1.3z"/><path d="M34.4 66.1c-.5 0-.9-.4-.9-.9l-.1-9.9c0-1.8-.3-3.6-.7-5.4l-.1-.2c-.8-3.1-1-6.3-.6-9.5l.1-1.1c.3-2.4.3-4.7-.2-7.1l-.3-1.6v-.1c-.4-2.4-2.1-4.5-4.5-5.2C15.4 21.4 9.9 15.6 9.9 6.8c0-.5.4-.9.9-.9s.9.4.9.9c0 7.9 5.1 13.2 16.1 16.6 3 .9 5.2 3.5 5.7 6.6v.1c.1.6.2 1.1.3 1.6.5 2.5.5 5.1.2 7.7l-.1 1.1c-.4 2.9-.2 5.9.5 8.8l.1.2c.5 1.9.8 3.9.8 5.8l.1 9.9c-.1.5-.5.9-1 .9zm3.3 0c-.5 0-.9-.4-.9-.9l-.1-9.9c0-2 .2-4 .7-5.9.7-2.9.8-5.9.4-8.8l-.1-1c-.4-2.7-.4-5.4.1-8 .1-.4.2-.9.2-1.4v-.1c.5-3.1 2.8-5.6 5.8-6.5C55 20.3 60.3 14.9 60.3 6.8c0-.5.4-.9.9-.9s.9.4.9.9c0 8.9-5.8 15-17.8 18.4-2.4.7-4.2 2.7-4.6 5.1v.1c-.1.6-.2 1.1-.2 1.5-.4 2.4-.5 4.9-.1 7.4l.1 1c.5 3.1.3 6.3-.4 9.4-.4 1.9-.7 3.7-.6 5.6l.1 9.9c0 .5-.4.9-.9.9z" fill="#427bbf"/><path d="M29.3 54.7c-2.8 0-5.8-1.3-8.4-3.7-3.1-2.8-5-6.7-5.6-10.8-.8-6.2.3-11.7 2.8-14.7 1.4-1.6 3.1-2.5 5.2-2.7 3.2-.2 5.9.8 7.9 2.9 2.3 2.4 3.2 6.1 2.7 10.3-.4 3.4-.1 6.5.2 9.2.5 4.7.9 8.7-3.6 9.3-.4.2-.8.2-1.2.2zM24 24.6h-.6c-1.5.1-2.8.8-3.9 2-2.2 2.7-3.1 7.6-2.4 13.3.5 3.7 2.3 7.2 5 9.7 2.5 2.3 5.5 3.5 8.1 3.2s2.6-2.2 2.1-7.4c-.3-2.7-.6-6.1-.2-9.6.4-3.7-.4-6.9-2.3-8.9-1.4-1.5-3.4-2.3-5.8-2.3zm18.1 30.1c-.4 0-.7 0-1.1-.1-4.5-.6-4.1-4.6-3.6-9.3.3-2.8.6-5.9.2-9.2-.5-4.2.5-7.9 2.7-10.3 2-2.1 4.7-3.1 7.9-2.9 2 .1 3.8 1 5.2 2.7 2.5 3 3.6 8.5 2.8 14.7a17.52 17.52 0 0 1-5.6 10.8c-2.7 2.3-5.7 3.6-8.5 3.6zm5.3-30.1c-2.4 0-4.4.8-5.9 2.4-1.9 2-2.7 5.2-2.3 8.9.4 3.6.1 6.9-.2 9.6-.5 5.2-.5 7 2.1 7.4 2.6.3 5.6-.9 8.1-3.2 2.8-2.5 4.5-6 5-9.7.7-5.7-.2-10.7-2.4-13.3-1-1.3-2.4-1.9-3.9-2-.1-.1-.3-.1-.5-.1z" fill="#f58320"/></svg>