<svg xmlns="http://www.w3.org/2000/svg" width="72.001" height="72.001" viewBox="0 0 72.001 72.001"><defs><style>.a{fill:#fff;}.b{fill:#ffdebc;}.c{fill:#3d7cc9;stroke:#fff;stroke-width:0.4px;}.d{fill:#ff8300;}.e,.f{stroke:none;}.f{fill:#e7e8e8;}</style></defs><g transform="translate(-944 -906)"><g transform="translate(904 732)"><g transform="translate(21 -507)"><g class="a" transform="translate(19 681)"><path class="e" d="M 66.46244049072266 71.7509765625 L 5.538538455963135 71.7509765625 C 2.622428178787231 71.7509765625 0.2499982863664627 69.37854766845703 0.2499982863664627 66.46244049072266 L 0.2499982863664627 5.538538455963135 C 0.2499982863664627 2.622428178787231 2.622428178787231 0.2499982863664627 5.538538455963135 0.2499982863664627 L 66.46244049072266 0.2499982863664627 C 69.37854766845703 0.2499982863664627 71.7509765625 2.622428178787231 71.7509765625 5.538538455963135 L 71.7509765625 66.46244049072266 C 71.7509765625 69.37854766845703 69.37854766845703 71.7509765625 66.46244049072266 71.7509765625 Z"/><path class="f" d="M 5.538536071777344 0.5 C 2.760276794433594 0.5 0.5 2.760276794433594 0.5 5.538536071777344 L 0.5 66.46244049072266 C 0.5 69.24069976806641 2.760276794433594 71.5009765625 5.538536071777344 71.5009765625 L 66.46244049072266 71.5009765625 C 69.24069976806641 71.5009765625 71.5009765625 69.24069976806641 71.5009765625 66.46244049072266 L 71.5009765625 5.538536071777344 C 71.5009765625 2.760276794433594 69.24069976806641 0.5 66.46244049072266 0.5 L 5.538536071777344 0.5 M 5.538536071777344 0 L 66.46244049072266 0 C 69.52128601074219 0 72.0009765625 2.479690551757812 72.0009765625 5.538536071777344 L 72.0009765625 66.46244049072266 C 72.0009765625 69.52128601074219 69.52128601074219 72.0009765625 66.46244049072266 72.0009765625 L 5.538536071777344 72.0009765625 C 2.479690551757812 72.0009765625 0 69.52128601074219 0 66.46244049072266 L 0 5.538536071777344 C 0 2.479690551757812 2.479690551757812 0 5.538536071777344 0 Z"/></g></g></g><g transform="translate(958.001 931)"><g transform="translate(-0.001)"><path class="b" d="M5.437,0A5.437,5.437,0,1,1,0,5.437,5.437,5.437,0,0,1,5.437,0Z" transform="translate(16.641 5.603)"/><path class="c" d="M43.881,52.364c-.4-.421-9.871-10.352-21.805-10.352S.669,51.942.273,52.364a1,1,0,0,0,0,1.375c.4.421,9.87,10.356,21.8,10.356S43.486,54.16,43.881,53.739a1,1,0,0,0,0-1.375Zm-21.8,9.093a8.406,8.406,0,1,1,8.408-8.407,8.405,8.405,0,0,1-8.408,8.407ZM15.414,45.116a10.276,10.276,0,0,0,0,15.871A36.5,36.5,0,0,1,2.433,53.051a36.526,36.526,0,0,1,12.981-7.935Zm13.33,15.868a10.267,10.267,0,0,0,0-15.865,36.5,36.5,0,0,1,12.978,7.932,36.57,36.57,0,0,1-12.979,7.934Z" transform="translate(0 -42.012)"/></g><path class="d" d="M2.506,0A2.506,2.506,0,1,1,0,2.506,2.506,2.506,0,0,1,2.506,0Z" transform="translate(20.624 8.691)"/><path class="d" d="M1.5,0,3,24H0Z" transform="matrix(0.719, -0.695, 0.695, 0.719, 20.443, 10.497)"/></g></g></svg>