<svg xmlns="http://www.w3.org/2000/svg" width="72.001" height="72.001" viewBox="0 0 72.001 72.001"><defs><style>.a{fill:#fff;}.b{fill:#f36a10;}.c{fill:#5c93d5;}.d{fill:#6095cf;}.e,.f{stroke:none;}.f{fill:#e7e8e8;}</style></defs><g transform="translate(-40 -174)"><g transform="translate(21 -507)"><g class="a" transform="translate(19 681)"><path class="e" d="M 66.46244049072266 71.7509765625 L 5.538538455963135 71.7509765625 C 2.622428178787231 71.7509765625 0.2499982863664627 69.37854766845703 0.2499982863664627 66.46244049072266 L 0.2499982863664627 5.538538455963135 C 0.2499982863664627 2.622428178787231 2.622428178787231 0.2499982863664627 5.538538455963135 0.2499982863664627 L 66.46244049072266 0.2499982863664627 C 69.37854766845703 0.2499982863664627 71.7509765625 2.622428178787231 71.7509765625 5.538538455963135 L 71.7509765625 66.46244049072266 C 71.7509765625 69.37854766845703 69.37854766845703 71.7509765625 66.46244049072266 71.7509765625 Z"/><path class="f" d="M 5.538536071777344 0.5 C 2.760276794433594 0.5 0.5 2.760276794433594 0.5 5.538536071777344 L 0.5 66.46244049072266 C 0.5 69.24069976806641 2.760276794433594 71.5009765625 5.538536071777344 71.5009765625 L 66.46244049072266 71.5009765625 C 69.24069976806641 71.5009765625 71.5009765625 69.24069976806641 71.5009765625 66.46244049072266 L 71.5009765625 5.538536071777344 C 71.5009765625 2.760276794433594 69.24069976806641 0.5 66.46244049072266 0.5 L 5.538536071777344 0.5 M 5.538536071777344 0 L 66.46244049072266 0 C 69.52128601074219 0 72.0009765625 2.479690551757812 72.0009765625 5.538536071777344 L 72.0009765625 66.46244049072266 C 72.0009765625 69.52128601074219 69.52128601074219 72.0009765625 66.46244049072266 72.0009765625 L 5.538536071777344 72.0009765625 C 2.479690551757812 72.0009765625 0 69.52128601074219 0 66.46244049072266 L 0 5.538536071777344 C 0 2.479690551757812 2.479690551757812 0 5.538536071777344 0 Z"/></g></g><g transform="translate(-195.298 -80.669)"><g transform="translate(255.298 270.672)"><path class="b" d="M261.69,288.9a4.656,4.656,0,0,1-1.852-.384l-.062-.03c-3.936-2.069-4.478-5.4-4.478-8.694s.535-6.621,4.418-8.666l.051-.025a4.669,4.669,0,0,1,5.121.856,3.641,3.641,0,0,1,.881,4.028l-1.675-.688a1.823,1.823,0,0,0-.442-2.017,2.864,2.864,0,0,0-3.118-.538c-2.851,1.513-3.425,3.821-3.425,7.05,0,4.347,1.33,5.937,3.478,7.075a2.845,2.845,0,0,0,3.058-.559,1.825,1.825,0,0,0,.456-2l1.682-.669a3.644,3.644,0,0,1-.9,3.993A4.642,4.642,0,0,1,261.69,288.9Z" transform="translate(-255.298 -270.689)"/></g><g transform="translate(276.152 270.669)"><path class="b" d="M397.85,288.881a4.661,4.661,0,0,1-3.2-1.271,3.6,3.6,0,0,1-.908-3.957l1.689.654a1.8,1.8,0,0,0,.456,1.98,2.856,2.856,0,0,0,3.117.54c2.851-1.513,3.425-3.821,3.425-7.05,0-4.347-1.33-5.937-3.477-7.074a2.853,2.853,0,0,0-3.061.558,1.826,1.826,0,0,0-.447,2.022l-1.675.688a3.642,3.642,0,0,1,.884-4.031,4.661,4.661,0,0,1,5.047-.887l.063.03c3.935,2.069,4.478,5.4,4.478,8.694s-.535,6.621-4.418,8.666l-.05.024A4.679,4.679,0,0,1,397.85,288.881Z" transform="translate(-393.496 -270.669)"/></g><g transform="translate(271.681 277.737)"><path class="c" d="M365.681,335.657H363.87V325.5c0-3.48.865-5.868,2.569-7.1,1.433-1.035,3.3-1.178,5.561-.425l-.573,1.718c-1.672-.558-2.994-.5-3.928.176-1.207.87-1.818,2.763-1.818,5.629Z" transform="translate(-363.87 -317.503)"/></g><g transform="translate(262.404 277.737)"><path class="c" d="M308.69,335.786V325.5c0-2.865-.611-4.759-1.817-5.628-.933-.673-2.248-.734-3.911-.182l-.57-1.719c2.246-.745,4.109-.6,5.54.432,1.7,1.229,2.569,3.616,2.569,7.1v10.286Z" transform="translate(-302.392 -317.503)"/></g><g transform="translate(264.154 294.939)"><path class="d" d="M320.877,446.265a6.405,6.405,0,0,1-4.964-2.613,8.712,8.712,0,0,1-1.928-5.257,6.89,6.89,0,0,1,2.372-5.2,7.322,7.322,0,0,1,2.956-1.514,6.841,6.841,0,0,1,2.453-.124l.031,0c.111.015.227.034.365.061l.017,0,.065.012c.135.027.262.057.386.089a6.378,6.378,0,0,1,1.837.789l.08.051.018.012a7.01,7.01,0,0,1,1.511,1.3l.029.035c.084.1.169.2.252.31a6.825,6.825,0,0,1,1.411,4.172,8.711,8.711,0,0,1-1.929,5.257A6.4,6.4,0,0,1,320.877,446.265Zm0-12.952a5.08,5.08,0,0,0-1.147.134,5.456,5.456,0,0,0-2.193,1.125,5.074,5.074,0,0,0-1.742,3.823c0,2.744,2.267,6.059,5.081,6.059s5.082-3.315,5.082-6.059a5.026,5.026,0,0,0-1.039-3.072c-.062-.081-.127-.16-.191-.234l-.025-.03a5.2,5.2,0,0,0-1.112-.952l-.072-.046a4.671,4.671,0,0,0-1.291-.566l-.045-.011c-.095-.025-.194-.048-.3-.07l-.061-.011c-.087-.017-.177-.032-.268-.045l-.021,0A5.111,5.111,0,0,0,320.877,433.313Z" transform="translate(-313.985 -431.502)"/></g></g></g></svg>